<svg width="24" height="24" viewBox="0 0 24 24" fill="none" xmlns="http://www.w3.org/2000/svg">
<path d="M12 1.75C14.0976 1.75004 16.1094 2.58324 17.5928 4.06641C19.0762 5.54982 19.9102 7.56229 19.9102 9.66016C19.9101 11.975 18.9717 13.9964 17.5771 15.9678C16.1919 17.926 14.3065 19.8987 12.374 22.0811C12.2792 22.1882 12.1431 22.25 12 22.25C11.8568 22.25 11.7199 22.1883 11.625 22.0811C9.77298 19.9889 7.96669 18.0845 6.60059 16.207C5.22772 14.3203 4.2507 12.3995 4.09082 10.2373C4.08992 10.2251 4.08985 10.2124 4.08984 10.2002V9.66016C4.08984 7.56229 4.92284 5.54982 6.40625 4.06641C7.88966 2.58299 9.90214 1.75 12 1.75ZM12 6.59961C11.1879 6.59961 10.4087 6.92223 9.83398 7.49609C9.25931 8.06996 8.93571 8.84899 8.93457 9.66113C8.93381 10.2672 9.11318 10.8598 9.44922 11.3643C9.78549 11.8689 10.2642 12.2625 10.8242 12.4951C11.384 12.7277 12.0001 12.7895 12.5947 12.6719C13.1896 12.5541 13.7369 12.2625 14.166 11.834C14.595 11.4055 14.8872 10.8592 15.0059 10.2646C15.1245 9.67002 15.0638 9.05344 14.832 8.49316C14.6002 7.93292 14.2072 7.45416 13.7031 7.11719C13.199 6.78024 12.6063 6.59964 12 6.59961Z" stroke="white" stroke-linecap="round" stroke-linejoin="round"/>
</svg>
