<svg width="77" height="22" viewBox="0 0 77 22" fill="none" xmlns="http://www.w3.org/2000/svg">
<path d="M69.7324 18.123H71.3351V18.566H70.1732V19.1862H71.3351V19.6292H70.1776V20.5108H71.3351V20.9538H69.7324V18.123Z" fill="#010101"/>
<path d="M68.0156 17.8758L68.3183 17.2246H68.9994L68.4029 17.8758H68.0156ZM67.6016 18.1239H69.2042V18.5669H68.0423V19.1871H69.2042V19.6301H68.0467V20.5116H69.2042V20.9546H67.6016V18.1239Z" fill="#010101"/>
<path d="M65.0703 20.2177L65.5511 20.0848C65.609 20.231 65.6401 20.2886 65.7158 20.3683C65.836 20.4968 65.9963 20.5721 66.1432 20.5721C66.3658 20.5721 66.5839 20.3816 66.5839 20.1823C66.5839 20.0937 66.5172 19.9696 66.4281 19.8766C66.3391 19.7924 66.2367 19.7304 65.9963 19.6329C65.6891 19.5045 65.5378 19.4114 65.4176 19.2741C65.3018 19.1368 65.2484 18.9817 65.2484 18.7824C65.2484 18.3305 65.5912 18.0293 66.112 18.0293C66.3035 18.0293 66.4682 18.0603 66.6195 18.1356C66.7932 18.2154 66.8733 18.2818 67.038 18.4723L66.6418 18.7824C66.437 18.5742 66.3124 18.5033 66.1343 18.5033C65.9251 18.5033 65.7336 18.6406 65.7336 18.7912C65.7336 18.9286 65.8583 19.0305 66.2055 19.1767C66.5528 19.3273 66.7353 19.4425 66.8688 19.6019C66.998 19.7614 67.0603 19.9475 67.0603 20.1823C67.0603 20.7006 66.6997 21.0461 66.1655 21.0461C65.8227 21.0461 65.56 20.9398 65.3552 20.7227C65.2306 20.5854 65.1727 20.4835 65.0703 20.2177Z" fill="#010101"/>
<path d="M64.0723 18.123H64.5174V20.9538H64.0723V18.123Z" fill="#010101"/>
<path d="M62.2363 18.123H62.686V20.5064H63.5897V20.9538H62.2363V18.123Z" fill="#010101"/>
<path d="M60.3848 19.0533L60.0198 19.8596H60.7588L60.3848 19.0533ZM60.4783 18.123L61.7693 20.9538H61.2574L60.9324 20.2494H59.8462L59.5212 20.9538H59.0137L60.2913 18.123H60.4783Z" fill="#010101"/>
<path d="M56.3092 18.123L58.1522 20.0102V18.123H58.5974V20.9538H58.406L56.5585 19.0666V20.9538H56.1133V18.123H56.3092Z" fill="#010101"/>
<path d="M53.1607 18.123L55.0038 20.0102V18.123H55.449V20.9538H55.2575L53.41 19.0666V20.9538H52.9648V18.123H53.1607Z" fill="#010101"/>
<path d="M50.7953 18.4989C50.2032 18.5255 49.7269 18.9862 49.7269 19.5311C49.7269 20.0848 50.2478 20.5721 50.822 20.5721C51.383 20.5721 51.8994 20.0804 51.8994 19.5443C51.8994 18.9862 51.3963 18.4989 50.8131 18.4989H50.7953ZM50.822 18.0293C51.3162 18.0426 51.6679 18.1843 51.9617 18.4812C52.2377 18.7602 52.3802 19.1102 52.3802 19.5178C52.3802 20.4215 51.7302 21.0461 50.7953 21.0461C49.9005 21.0461 49.2461 20.3949 49.2461 19.5089C49.2461 18.6716 49.9228 18.0293 50.7998 18.0293H50.822Z" fill="#010101"/>
<path d="M46.8066 20.2177L47.2874 20.0848C47.3453 20.231 47.3765 20.2886 47.4522 20.3683C47.5724 20.4968 47.7326 20.5721 47.8795 20.5721C48.1021 20.5721 48.3203 20.3816 48.3203 20.1823C48.3203 20.0937 48.2535 19.9696 48.1644 19.8766C48.0754 19.7924 47.973 19.7304 47.7326 19.6329C47.4254 19.5045 47.2741 19.4114 47.1539 19.2741C47.0381 19.1368 46.9847 18.9817 46.9847 18.7824C46.9847 18.3305 47.3275 18.0293 47.8484 18.0293C48.0398 18.0293 48.2045 18.0603 48.3559 18.1356C48.5295 18.2154 48.6096 18.2818 48.7743 18.4723L48.3781 18.7824C48.1733 18.5742 48.0487 18.5033 47.8706 18.5033C47.6614 18.5033 47.47 18.6406 47.47 18.7912C47.47 18.9286 47.5946 19.0305 47.9419 19.1767C48.2891 19.3273 48.4716 19.4425 48.6052 19.6019C48.7343 19.7614 48.7966 19.9475 48.7966 20.1823C48.7966 20.7006 48.436 21.0461 47.9018 21.0461C47.559 21.0461 47.2963 20.9398 47.0916 20.7227C46.9669 20.5854 46.909 20.4835 46.8066 20.2177Z" fill="#010101"/>
<path d="M45.0707 18.5306V18.535V19.4122C45.5649 19.4077 45.8275 19.2527 45.8275 18.9692C45.8275 18.7078 45.556 18.5306 45.1509 18.5306H45.0707ZM44.6211 18.123H45.2889C45.8988 18.123 46.3039 18.4464 46.3039 18.9382C46.3039 19.204 46.2193 19.4033 46.0546 19.5451C45.9299 19.647 45.8453 19.6913 45.6005 19.7666L46.4107 20.9538H45.8453L45.0796 19.8197H45.0707V20.9538H44.6211V18.123Z" fill="#010101"/>
<path d="M42.4023 18.123H44.005V18.566H42.8431V19.1862H44.005V19.6292H42.8475V20.5108H44.005V20.9538H42.4023V18.123Z" fill="#010101"/>
<path d="M40.5624 18.535V19.4166C41.0343 19.4077 41.3147 19.2394 41.3147 18.9692C41.3147 18.7964 41.1856 18.6414 40.9853 18.5793C40.8785 18.5483 40.7805 18.535 40.5624 18.535ZM40.1172 18.123H40.7449C41.3949 18.123 41.7955 18.442 41.7955 18.9603C41.7955 19.235 41.7154 19.4122 41.5106 19.5716C41.2925 19.74 41.0165 19.8286 40.687 19.8286H40.5668V20.9538H40.1172V18.123Z" fill="#010101"/>
<path d="M36.7656 18.123H38.3683V18.566H37.2064V19.1862H38.3683V19.6292H37.2108V20.5108H38.3683V20.9538H36.7656V18.123Z" fill="#010101"/>
<path d="M35.6406 18.123H36.0858V20.9538H35.6406V18.123Z" fill="#010101"/>
<path d="M33.7485 18.5306V18.535V19.4122C34.2426 19.4077 34.5053 19.2527 34.5053 18.9692C34.5053 18.7078 34.2337 18.5306 33.8286 18.5306H33.7485ZM33.2988 18.123H33.9666C34.5765 18.123 34.9816 18.4464 34.9816 18.9382C34.9816 19.204 34.897 19.4033 34.7323 19.5451C34.6077 19.647 34.5231 19.6913 34.2782 19.7666L35.0885 20.9538H34.5231L33.7574 19.8197H33.7485V20.9538H33.2988V18.123Z" fill="#010101"/>
<path d="M31.0801 18.123H32.6827V18.566H31.5208V19.1862H32.6827V19.6292H31.5253V20.5108H32.6827V20.9538H31.0801V18.123Z" fill="#010101"/>
<path d="M28.1431 18.123L29.9862 20.0102V18.123H30.4314V20.9538H30.24L28.3924 19.0666V20.9538H27.9473V18.123H28.1431Z" fill="#010101"/>
<path d="M26.8086 18.123H27.2538V20.9538H26.8086V18.123Z" fill="#010101"/>
<path d="M23.9336 18.123H24.3788V19.7843C24.3788 20.0811 24.4366 20.2716 24.5658 20.4045C24.686 20.5285 24.8596 20.5994 25.0287 20.5994C25.4294 20.5994 25.7054 20.3247 25.7054 19.926V18.123H26.1506V19.9571C26.1506 20.626 25.7277 21.0468 25.0599 21.0468C24.6815 21.0468 24.4456 20.9627 24.2408 20.7544C24.0182 20.5285 23.9336 20.2671 23.9336 19.802V18.123Z" fill="#010101"/>
<path d="M22.1683 19.8367L22.5512 20.2487C22.756 20.0272 22.8628 19.788 22.8628 19.5443C22.8628 18.9773 22.3553 18.4989 21.7543 18.4989C21.1978 18.4989 20.6859 18.995 20.6859 19.5355C20.6859 20.0759 21.2067 20.5721 21.7721 20.5721C21.9101 20.5721 21.9724 20.5632 22.1461 20.5056L21.5184 19.8367H22.1683ZM22.7293 21.1258L22.5067 20.891C22.2351 21.0062 22.0348 21.0505 21.7721 21.0505C20.8639 21.0505 20.2051 20.4082 20.2051 19.5133C20.2051 18.6583 20.8773 18.0293 21.7855 18.0293C22.6803 18.0293 23.3481 18.6672 23.3481 19.5178C23.3481 19.8411 23.2679 20.1158 23.1166 20.3595C23.0498 20.4613 23.0097 20.5101 22.8984 20.6208L23.3792 21.1258H22.7293Z" fill="#010101"/>
<path d="M18.1469 18.4989C17.5548 18.5255 17.0785 18.9862 17.0785 19.5311C17.0785 20.0848 17.5993 20.5721 18.1736 20.5721C18.7345 20.5721 19.2509 20.0804 19.2509 19.5443C19.2509 18.9862 18.7479 18.4989 18.1647 18.4989H18.1469ZM18.1736 18.0293C18.6677 18.0426 19.0194 18.1843 19.3133 18.4812C19.5893 18.7602 19.7317 19.1102 19.7317 19.5178C19.7317 20.4215 19.0818 21.0461 18.1469 21.0461C17.2521 21.0461 16.5977 20.3949 16.5977 19.5089C16.5977 18.6716 17.2743 18.0293 18.1513 18.0293H18.1736Z" fill="#010101"/>
<path d="M14.8656 18.5306V18.535V19.4122C15.3598 19.4077 15.6225 19.2527 15.6225 18.9692C15.6225 18.7078 15.3509 18.5306 14.9458 18.5306H14.8656ZM14.416 18.123H15.0838C15.6937 18.123 16.0988 18.4464 16.0988 18.9382C16.0988 19.204 16.0142 19.4033 15.8495 19.5451C15.7249 19.647 15.6403 19.6913 15.3954 19.7666L16.2056 20.9538H15.6403L14.8746 19.8197H14.8656V20.9538H14.416V18.123Z" fill="#010101"/>
<path d="M12.5567 19.0533L12.1917 19.8596H12.9307L12.5567 19.0533ZM12.6502 18.123L13.9412 20.9538H13.4293L13.1043 20.2494H12.018L11.6931 20.9538H11.1855L12.4632 18.123H12.6502Z" fill="#010101"/>
<path d="M8.3958 18.123H8.56051L9.33513 19.9615L10.1053 18.123H10.27L11.009 20.9538H10.5416L10.1142 19.3147H10.1053L9.42417 20.9538H9.25055L8.56497 19.3014H8.55606L8.11978 20.9538H7.65234L8.3958 18.123Z" fill="#010101"/>
<path d="M74.8379 0.285156H76.855V14.2313H74.8379V0.285156Z" fill="#E50000"/>
<path d="M69.4648 0.285156H71.4819V14.2313H69.4648V0.285156Z" fill="#E50000"/>
<path d="M58.7224 8.66652H64.5601C63.9194 7.45668 62.9464 6.84077 61.6887 6.84077C60.3361 6.84077 59.292 7.47868 58.7224 8.66652ZM66.6721 10.1623H58.5089C58.7224 11.1082 59.0072 11.5921 59.6005 12.0541C60.1937 12.516 60.9768 12.78 61.7836 12.78C62.9939 12.78 63.8007 12.406 64.655 11.4601L66.1263 12.494C65.7228 12.9779 65.533 13.1539 65.1533 13.4399C64.2041 14.0998 63.0176 14.4737 61.6887 14.4737C58.8411 14.4737 56.6816 12.45 56.6816 9.76637C56.6816 7.21472 58.936 5.125 61.6887 5.125C63.777 5.147 65.5567 6.29084 66.3161 8.13859C66.5771 8.77651 66.6483 9.17245 66.6721 10.1623Z" fill="#E50000"/>
<path d="M41.041 0L51.9569 10.4046V0.549925H53.974V14.87L43.0581 4.50939V14.2321H41.041V0Z" fill="#E50000"/>
<path d="M29.7793 0.285156H31.7964V6.81827C33.0066 5.54244 33.8134 5.1245 35.1186 5.1245C36.756 5.1245 38.1086 6.44432 38.1086 8.0501V14.2313H36.0915V8.57803C36.0915 7.45618 35.4271 6.73028 34.4304 6.73028C32.9591 6.73028 31.7964 7.89612 31.7964 9.34793V14.2313H29.7793V0.285156Z" fill="#010101"/>
<path d="M24.4005 2.79297H26.4175V5.36662H28.4109V7.08239H26.4175V14.2314H24.4005V7.08239H22.8105V5.34462H24.4005V2.79297Z" fill="#010101"/>
<path d="M15.4579 6.88476C13.7493 6.88476 12.278 8.20458 12.278 9.76637C12.278 11.4381 13.6781 12.78 15.4579 12.78C17.2139 12.78 18.6377 11.4381 18.6377 9.83236C18.6377 8.20458 17.2139 6.88476 15.4579 6.88476ZM18.3767 7.17072V5.36697H20.3937V14.2318H18.3767V12.472H18.3292C17.8546 13.1099 17.6173 13.3299 17.1902 13.6598C16.4545 14.1878 15.624 14.4737 14.7222 14.4737C12.1831 14.4737 10.166 12.384 10.166 9.76637C10.166 7.28071 12.2305 5.125 14.6748 5.125C15.624 5.125 16.5494 5.43296 17.3088 6.02688C17.736 6.33484 17.9495 6.55481 18.3292 7.17072H18.3767Z" fill="#010101"/>
<path d="M0 0.550781H8.18692V2.42053H1.99334V5.83007H8.18692V7.67781H2.01707V14.2329H0V0.550781Z" fill="#010101"/>
</svg>
