<svg width="150" height="150" viewBox="0 0 150 150" fill="none" xmlns="http://www.w3.org/2000/svg">
<path d="M137.273 89.4786L109.57 70.3125L137.256 51.1465C137.568 50.9309 137.822 50.6429 137.999 50.3071C138.175 49.9714 138.267 49.5979 138.267 49.2188C138.267 48.8397 138.175 48.4662 137.999 48.1305C137.822 47.7947 137.568 47.5067 137.256 47.2911L106.787 26.1973C106.395 25.9251 105.929 25.7793 105.451 25.7793C104.974 25.7793 104.508 25.9251 104.115 26.1973L75 46.3711L45.8672 26.1973C45.4748 25.9251 45.0087 25.7793 44.5312 25.7793C44.0537 25.7793 43.5876 25.9251 43.1953 26.1973L12.7265 47.2911C12.4147 47.5067 12.1599 47.7947 11.9838 48.1305C11.8078 48.4662 11.7158 48.8397 11.7158 49.2188C11.7158 49.5979 11.8078 49.9714 11.9838 50.3071C12.1599 50.6429 12.4147 50.9309 12.7265 51.1465L40.4297 70.3125L12.7265 89.4786C12.4147 89.6942 12.1599 89.9822 11.9838 90.318C11.8078 90.6537 11.7158 91.0272 11.7158 91.4063C11.7158 91.7854 11.8078 92.1589 11.9838 92.4946C12.1599 92.8304 12.4147 93.1184 12.7265 93.334L43.1953 114.428C43.5876 114.7 44.0537 114.846 44.5312 114.846C45.0087 114.846 45.4748 114.7 45.8672 114.428L75 94.254L104.133 114.428C104.525 114.7 104.991 114.846 105.469 114.846C105.946 114.846 106.412 114.7 106.805 114.428L137.273 93.334C137.585 93.1184 137.84 92.8304 138.016 92.4946C138.192 92.1589 138.284 91.7854 138.284 91.4063C138.284 91.0272 138.192 90.6537 138.016 90.318C137.84 89.9822 137.585 89.6942 137.273 89.4786ZM75 88.5586L48.6328 70.3125L75 52.0665L101.367 70.3125L75 88.5586ZM105.469 30.9786L131.836 49.2188L105.469 67.459L79.1015 49.2188L105.469 30.9786ZM44.5312 30.9786L70.8984 49.2188L44.5312 67.459L18.164 49.2188L44.5312 30.9786ZM44.5312 109.647L18.164 91.4063L44.5312 73.1661L70.8984 91.4063L44.5312 109.647ZM105.469 109.647L79.1015 91.4063L105.469 73.1661L131.836 91.4063L105.469 109.647ZM90.9257 122.566C91.1017 122.819 91.2261 123.104 91.2919 123.405C91.3577 123.706 91.3635 124.017 91.3091 124.32C91.2547 124.623 91.1411 124.912 90.9747 125.171C90.8084 125.431 90.5927 125.654 90.3398 125.83L76.3418 135.522C75.9494 135.794 75.4833 135.94 75.0058 135.94C74.5283 135.94 74.0622 135.794 73.6699 135.522L59.6718 125.83C59.1606 125.476 58.811 124.933 58.7 124.321C58.589 123.709 58.7257 123.078 59.08 122.566C59.4344 122.055 59.9773 121.706 60.5893 121.595C61.2014 121.484 61.8324 121.62 62.3437 121.975L75.0058 130.764L87.6679 121.975C88.1786 121.622 88.8085 121.486 89.4192 121.597C90.03 121.708 90.5718 122.056 90.9257 122.566Z" fill="black"/>
</svg>
