<svg width="28" height="28" viewBox="0 0 28 28" fill="none" xmlns="http://www.w3.org/2000/svg">
<path d="M23.625 2.84375H4.375C3.96889 2.84375 3.57941 3.00508 3.29224 3.29224C3.00508 3.57941 2.84375 3.96889 2.84375 4.375V23.625C2.84375 24.0311 3.00508 24.4206 3.29224 24.7078C3.57941 24.9949 3.96889 25.1562 4.375 25.1562H23.625C24.0311 25.1562 24.4206 24.9949 24.7078 24.7078C24.9949 24.4206 25.1562 24.0311 25.1562 23.625V4.375C25.1562 3.96889 24.9949 3.57941 24.7078 3.29224C24.4206 3.00508 24.0311 2.84375 23.625 2.84375ZM23.8438 23.625C23.8438 23.683 23.8207 23.7387 23.7797 23.7797C23.7387 23.8207 23.683 23.8438 23.625 23.8438H4.375C4.31698 23.8438 4.26134 23.8207 4.22032 23.7797C4.1793 23.7387 4.15625 23.683 4.15625 23.625V4.375C4.15625 4.31698 4.1793 4.26134 4.22032 4.22032C4.26134 4.1793 4.31698 4.15625 4.375 4.15625H23.625C23.683 4.15625 23.7387 4.1793 23.7797 4.22032C23.8207 4.26134 23.8438 4.31698 23.8438 4.375V23.625ZM10.2812 12.25V19.25C10.2812 19.424 10.2121 19.591 10.089 19.714C9.96597 19.8371 9.79905 19.9062 9.625 19.9062C9.45095 19.9062 9.28403 19.8371 9.16096 19.714C9.03789 19.591 8.96875 19.424 8.96875 19.25V12.25C8.96875 12.076 9.03789 11.909 9.16096 11.786C9.28403 11.6629 9.45095 11.5938 9.625 11.5938C9.79905 11.5938 9.96597 11.6629 10.089 11.786C10.2121 11.909 10.2812 12.076 10.2812 12.25ZM19.9062 15.3125V19.25C19.9062 19.424 19.8371 19.591 19.714 19.714C19.591 19.8371 19.424 19.9062 19.25 19.9062C19.076 19.9062 18.909 19.8371 18.786 19.714C18.6629 19.591 18.5938 19.424 18.5938 19.25V15.3125C18.5938 14.6743 18.3402 14.0623 17.889 13.611C17.4377 13.1598 16.8257 12.9062 16.1875 12.9062C15.5493 12.9062 14.9373 13.1598 14.486 13.611C14.0348 14.0623 13.7812 14.6743 13.7812 15.3125V19.25C13.7812 19.424 13.7121 19.591 13.589 19.714C13.466 19.8371 13.299 19.9062 13.125 19.9062C12.951 19.9062 12.784 19.8371 12.661 19.714C12.5379 19.591 12.4688 19.424 12.4688 19.25V12.25C12.4688 12.076 12.5379 11.909 12.661 11.786C12.784 11.6629 12.951 11.5938 13.125 11.5938C13.299 11.5938 13.466 11.6629 13.589 11.786C13.7121 11.909 13.7812 12.076 13.7812 12.25V12.4808C14.3221 12.0218 14.9829 11.7271 15.6858 11.6314C16.3886 11.5357 17.1042 11.643 17.7481 11.9406C18.3919 12.2383 18.9372 12.7139 19.3196 13.3114C19.702 13.9088 19.9056 14.6032 19.9062 15.3125ZM10.7188 9.1875C10.7188 9.40382 10.6546 9.61529 10.5344 9.79516C10.4142 9.97502 10.2434 10.1152 10.0436 10.198C9.8437 10.2808 9.62379 10.3024 9.41162 10.2602C9.19945 10.218 9.00457 10.1139 8.8516 9.9609C8.69864 9.80793 8.59447 9.61305 8.55227 9.40088C8.51006 9.18871 8.53172 8.9688 8.61451 8.76894C8.69729 8.56908 8.83748 8.39826 9.01734 8.27808C9.19721 8.1579 9.40868 8.09375 9.625 8.09375C9.91508 8.09375 10.1933 8.20898 10.3984 8.4141C10.6035 8.61922 10.7188 8.89742 10.7188 9.1875Z" fill="white"/>
</svg>
