<svg width="24" height="24" viewBox="0 0 24 24" fill="none" xmlns="http://www.w3.org/2000/svg">
<path d="M14 5C14 4.46957 13.7892 3.96086 13.4142 3.58579C13.0391 3.21071 12.5304 3 12 3C11.4695 3 10.9608 3.21071 10.5857 3.58579C10.2107 3.96086 9.99995 4.46957 9.99995 5M19.26 9.696L20.645 18.696C20.6888 18.9808 20.6705 19.2718 20.5914 19.5489C20.5123 19.8261 20.3742 20.0828 20.1867 20.3016C19.9991 20.5204 19.7665 20.6961 19.5047 20.8167C19.2429 20.9372 18.9582 20.9997 18.67 21H5.32995C5.04158 21 4.75662 20.9377 4.49459 20.8173C4.23257 20.6969 3.99968 20.5212 3.8119 20.3024C3.62411 20.0836 3.48587 19.8267 3.40666 19.5494C3.32744 19.2721 3.30912 18.981 3.35295 18.696L4.73795 9.696C4.8106 9.22359 5.05003 8.79282 5.41288 8.4817C5.77572 8.17059 6.23799 7.9997 6.71595 8H17.284C17.7617 7.99994 18.2238 8.17094 18.5864 8.48203C18.949 8.79312 19.1873 9.22376 19.26 9.696Z" stroke="black" stroke-width="1.5" stroke-linecap="round" stroke-linejoin="round"/>
</svg>
