<svg width="23" height="23" viewBox="0 0 23 23" fill="none" xmlns="http://www.w3.org/2000/svg">
<g clip-path="url(#clip0_4207_24242)">
<mask id="path-1-outside-1_4207_24242" maskUnits="userSpaceOnUse" x="0.916626" y="0.916748" width="22" height="23" fill="black">
<rect fill="white" x="0.916626" y="0.916748" width="22" height="23"/>
<path d="M6.36755 10.658L13.2931 17.5367C14.0353 16.6773 18.7343 11.6397 21.0833 18.5205C21.0833 18.5205 20.8363 22.0834 15.7656 22.0834C12.1804 22.0834 8.47056 17.7837 5.87348 15.3261C3.64802 13.2369 1.91663 10.5344 1.91663 8.07684C1.91663 3.04027 5.3794 2.91675 5.3794 2.91675C13.2931 5.61925 6.36862 10.658 6.36862 10.658"/>
</mask>
<path d="M13.2931 17.5367L12.5884 18.2462L13.3491 19.0017L14.0499 18.1903L13.2931 17.5367ZM21.0833 18.5205L22.0809 18.5897L22.0949 18.3884L22.0297 18.1975L21.0833 18.5205ZM5.87348 15.3261L6.56081 14.5998L6.55791 14.597L5.87348 15.3261ZM5.3794 2.91675L5.70258 1.97041L5.52805 1.91081L5.34376 1.91738L5.3794 2.91675ZM6.36755 10.658L5.66285 11.3675L12.5884 18.2462L13.2931 17.5367L13.9978 16.8272L7.07225 9.94845L6.36755 10.658ZM13.2931 17.5367L14.0499 18.1903C14.2136 18.0008 14.6075 17.5675 15.134 17.1279C15.6698 16.6805 16.2865 16.2745 16.8944 16.0772C17.4781 15.8877 17.9874 15.9065 18.4551 16.1946C18.9594 16.5052 19.5872 17.2332 20.1369 18.8436L21.0833 18.5205L22.0297 18.1975C21.4049 16.3674 20.5644 15.1448 19.5039 14.4917C18.4066 13.8159 17.2544 13.8576 16.2769 14.1749C15.3237 14.4843 14.4796 15.0688 13.8522 15.5926C13.2155 16.1242 12.7437 16.6429 12.5363 16.883L13.2931 17.5367ZM21.0833 18.5205C20.0857 18.4514 20.0857 18.4507 20.0858 18.45C20.0858 18.4498 20.0858 18.4492 20.0859 18.4488C20.0859 18.4479 20.086 18.4472 20.086 18.4465C20.0861 18.445 20.0862 18.4438 20.0863 18.4428C20.0865 18.4407 20.0866 18.4394 20.0867 18.4389C20.0868 18.4378 20.0866 18.4398 20.086 18.4446C20.0849 18.4542 20.0822 18.4749 20.0771 18.5051C20.0667 18.5658 20.0465 18.6629 20.0094 18.7842C19.9346 19.028 19.7949 19.3572 19.5378 19.6865C19.0565 20.3028 18.0357 21.0834 15.7656 21.0834V22.0834V23.0834C18.5662 23.0834 20.2042 22.0826 21.1141 20.9175C21.5525 20.356 21.7915 19.7945 21.9216 19.3703C21.9868 19.1576 22.0255 18.9763 22.0485 18.8422C22.06 18.775 22.0676 18.7191 22.0725 18.6765C22.075 18.6552 22.0769 18.6372 22.0782 18.6227C22.0789 18.6154 22.0794 18.609 22.0799 18.6035C22.0801 18.6007 22.0803 18.5982 22.0804 18.5959C22.0805 18.5948 22.0806 18.5937 22.0807 18.5926C22.0807 18.5921 22.0808 18.5914 22.0808 18.5911C22.0808 18.5904 22.0809 18.5897 21.0833 18.5205ZM15.7656 22.0834V21.0834C14.3417 21.0834 12.7526 20.2102 11.0798 18.8504C9.4157 17.4977 7.92589 15.8915 6.56081 14.5998L5.87348 15.3261L5.18615 16.0524C6.41815 17.2183 8.08179 18.9908 9.81821 20.4023C11.5459 21.8067 13.6043 23.0834 15.7656 23.0834V22.0834ZM5.87348 15.3261L6.55791 14.597C4.4017 12.5729 2.91663 10.1182 2.91663 8.07684H1.91663H0.916626C0.916626 10.9506 2.89433 13.901 5.18905 16.0552L5.87348 15.3261ZM1.91663 8.07684H2.91663C2.91663 5.81513 3.6777 4.84322 4.25457 4.40312C4.56536 4.16601 4.876 4.04222 5.10626 3.97819C5.22076 3.94635 5.3122 3.9302 5.36884 3.92229C5.397 3.91836 5.41602 3.91655 5.42437 3.91584C5.42853 3.91549 5.42997 3.91543 5.4285 3.91551C5.42776 3.91556 5.42629 3.91564 5.42406 3.91574C5.42294 3.9158 5.42163 3.91586 5.42013 3.91592C5.41938 3.91595 5.41859 3.91598 5.41774 3.91601C5.41732 3.91603 5.41664 3.91605 5.41643 3.91606C5.41575 3.91609 5.41505 3.91611 5.3794 2.91675C5.34376 1.91738 5.34303 1.91741 5.3423 1.91744C5.34203 1.91745 5.34128 1.91747 5.34075 1.9175C5.33969 1.91754 5.33858 1.91758 5.33741 1.91763C5.33507 1.91773 5.33251 1.91784 5.32973 1.91797C5.32417 1.91823 5.31773 1.91857 5.31044 1.919C5.29587 1.91986 5.27786 1.9211 5.25666 1.92289C5.21428 1.92645 5.15891 1.93221 5.09239 1.94149C4.95965 1.96002 4.78056 1.99287 4.57043 2.0513C4.15142 2.16782 3.59636 2.38969 3.04146 2.81303C1.88694 3.69384 0.916626 5.30198 0.916626 8.07684H1.91663ZM5.3794 2.91675L5.05623 3.86309C6.93571 4.50492 7.7054 5.21352 7.99412 5.74428C8.25583 6.22538 8.22422 6.75615 7.93469 7.37957C7.63743 8.01964 7.11644 8.63493 6.62727 9.11394C6.38906 9.3472 6.17172 9.53529 6.01537 9.66392C5.93746 9.72802 5.8754 9.77677 5.83435 9.80838C5.81385 9.82417 5.79865 9.83563 5.7894 9.84255C5.78477 9.846 5.78164 9.84832 5.78009 9.84947C5.77931 9.85004 5.77893 9.85032 5.77895 9.85031C5.77896 9.8503 5.77907 9.85022 5.77929 9.85006C5.77939 9.84998 5.77963 9.84981 5.77969 9.84977C5.77995 9.84958 5.78024 9.84937 6.36862 10.658C6.957 11.4665 6.95734 11.4663 6.95771 11.466C6.95787 11.4659 6.95826 11.4656 6.95858 11.4654C6.95921 11.4649 6.95995 11.4644 6.9608 11.4638C6.96249 11.4625 6.9646 11.461 6.96712 11.4591C6.97216 11.4554 6.97884 11.4504 6.98708 11.4443C7.00355 11.432 7.02627 11.4148 7.05455 11.393C7.11107 11.3495 7.19005 11.2874 7.28602 11.2084C7.47744 11.0509 7.73925 10.8243 8.02657 10.5429C8.58843 9.99272 9.30396 9.17942 9.74861 8.222C10.201 7.24794 10.4167 6.01231 9.751 4.78858C9.11233 3.6145 7.77995 2.67982 5.70258 1.97041L5.3794 2.91675Z" fill="white" mask="url(#path-1-outside-1_4207_24242)"/>
</g>
<defs>
<clipPath id="clip0_4207_24242">
<rect width="23" height="23" fill="white"/>
</clipPath>
</defs>
</svg>
