<svg width="23" height="23" viewBox="0 0 23 23" fill="none" xmlns="http://www.w3.org/2000/svg">
<g clip-path="url(#clip0_3805_25344)">
<mask id="path-1-outside-1_3805_25344" maskUnits="userSpaceOnUse" x="0.916016" y="0.916992" width="22" height="23" fill="black">
<rect fill="white" x="0.916016" y="0.916992" width="22" height="23"/>
<path d="M6.36694 10.6582L13.2925 17.5369C14.0347 16.6776 18.7337 11.64 21.0827 18.5208C21.0827 18.5208 20.8356 22.0837 15.765 22.0837C12.1798 22.0837 8.46995 17.7839 5.87287 15.3263C3.6474 13.2372 1.91602 10.5347 1.91602 8.07709C1.91602 3.04051 5.37879 2.91699 5.37879 2.91699C13.2925 5.61949 6.36801 10.6582 6.36801 10.6582"/>
</mask>
<path d="M13.2925 17.5369L12.5878 18.2464L13.3485 19.002L14.0493 18.1905L13.2925 17.5369ZM21.0827 18.5208L22.0803 18.59L22.0942 18.3887L22.0291 18.1977L21.0827 18.5208ZM5.87287 15.3263L6.5602 14.6L6.5573 14.5973L5.87287 15.3263ZM5.37879 2.91699L5.70196 1.97065L5.52744 1.91105L5.34315 1.91763L5.37879 2.91699ZM6.36694 10.6582L5.66224 11.3677L12.5878 18.2464L13.2925 17.5369L13.9972 16.8274L7.07164 9.94869L6.36694 10.6582ZM13.2925 17.5369L14.0493 18.1905C14.213 18.001 14.6069 17.5677 15.1334 17.1281C15.6692 16.6807 16.2859 16.2748 16.8938 16.0774C17.4775 15.888 17.9868 15.9068 18.4544 16.1948C18.9588 16.5055 19.5866 17.2335 20.1363 18.8439L21.0827 18.5208L22.0291 18.1977C21.4043 16.3677 20.5638 15.1451 19.5033 14.4919C18.406 13.8161 17.2538 13.8579 16.2763 14.1751C15.3231 14.4845 14.479 15.0691 13.8516 15.5929C13.2149 16.1245 12.7431 16.6431 12.5357 16.8833L13.2925 17.5369ZM21.0827 18.5208C20.0851 18.4516 20.0851 18.4509 20.0852 18.4503C20.0852 18.4501 20.0852 18.4494 20.0853 18.449C20.0853 18.4482 20.0854 18.4474 20.0854 18.4467C20.0855 18.4453 20.0856 18.444 20.0857 18.443C20.0859 18.4409 20.086 18.4396 20.0861 18.4391C20.0861 18.4381 20.086 18.44 20.0854 18.4448C20.0843 18.4544 20.0816 18.4751 20.0765 18.5053C20.0661 18.566 20.0459 18.6631 20.0088 18.7844C19.934 19.0283 19.7943 19.3575 19.5372 19.6867C19.0559 20.303 18.0351 21.0837 15.765 21.0837V22.0837V23.0837C18.5655 23.0837 20.2036 22.0829 21.1135 20.9177C21.5519 20.3563 21.7909 19.7947 21.9209 19.3706C21.9862 19.1578 22.0249 18.9766 22.0479 18.8424C22.0594 18.7752 22.0669 18.7194 22.0719 18.6768C22.0744 18.6555 22.0762 18.6374 22.0776 18.6229C22.0783 18.6156 22.0788 18.6092 22.0792 18.6037C22.0795 18.601 22.0797 18.5985 22.0798 18.5962C22.0799 18.595 22.08 18.5939 22.0801 18.5929C22.0801 18.5924 22.0802 18.5916 22.0802 18.5914C22.0802 18.5907 22.0803 18.59 21.0827 18.5208ZM15.765 22.0837V21.0837C14.3411 21.0837 12.752 20.2105 11.0792 18.8506C9.41509 17.4979 7.92528 15.8918 6.5602 14.6L5.87287 15.3263L5.18554 16.0527C6.41754 17.2185 8.08118 18.991 9.8176 20.4026C11.5453 21.807 13.6037 23.0837 15.765 23.0837V22.0837ZM5.87287 15.3263L6.5573 14.5973C4.40109 12.5731 2.91602 10.1185 2.91602 8.07709H1.91602H0.916016C0.916016 10.9509 2.89372 13.9012 5.18844 16.0554L5.87287 15.3263ZM1.91602 8.07709H2.91602C2.91602 5.81538 3.67709 4.84346 4.25396 4.40337C4.56475 4.16626 4.87539 4.04246 5.10565 3.97843C5.22015 3.94659 5.31159 3.93044 5.36822 3.92254C5.39639 3.91861 5.41541 3.91679 5.42376 3.91609C5.42792 3.91574 5.42936 3.91567 5.42789 3.91576C5.42715 3.9158 5.42568 3.91588 5.42344 3.91599C5.42233 3.91604 5.42102 3.9161 5.41952 3.91616C5.41877 3.91619 5.41798 3.91622 5.41713 3.91626C5.41671 3.91627 5.41603 3.9163 5.41582 3.91631C5.41514 3.91633 5.41444 3.91636 5.37879 2.91699C5.34315 1.91763 5.34242 1.91765 5.34169 1.91768C5.34142 1.91769 5.34067 1.91772 5.34014 1.91774C5.33908 1.91778 5.33797 1.91782 5.3368 1.91787C5.33446 1.91797 5.3319 1.91808 5.32912 1.91821C5.32356 1.91848 5.31712 1.91881 5.30983 1.91924C5.29526 1.92011 5.27725 1.92135 5.25605 1.92313C5.21367 1.9267 5.1583 1.93245 5.09178 1.94174C4.95904 1.96026 4.77995 1.99311 4.56982 2.05155C4.15081 2.16807 3.59575 2.38994 3.04085 2.81328C1.88633 3.69408 0.916016 5.30222 0.916016 8.07709H1.91602ZM5.37879 2.91699L5.05562 3.86333C6.9351 4.50517 7.70479 5.21377 7.99351 5.74452C8.25522 6.22563 8.22361 6.75639 7.93408 7.37982C7.63682 8.01988 7.11583 8.63517 6.62666 9.11418C6.38845 9.34745 6.17111 9.53554 6.01476 9.66417C5.93685 9.72827 5.87479 9.77702 5.83374 9.80862C5.81324 9.82441 5.79804 9.83588 5.78879 9.84279C5.78416 9.84625 5.78103 9.84857 5.77948 9.84971C5.7787 9.85029 5.77832 9.85057 5.77834 9.85055C5.77835 9.85054 5.77846 9.85046 5.77868 9.8503C5.77878 9.85023 5.77902 9.85005 5.77907 9.85001C5.77934 9.84982 5.77963 9.84961 6.36801 10.6582C6.95639 11.4668 6.95673 11.4665 6.9571 11.4663C6.95725 11.4661 6.95765 11.4659 6.95797 11.4656C6.9586 11.4652 6.95934 11.4646 6.96019 11.464C6.96188 11.4628 6.96399 11.4612 6.96651 11.4594C6.97155 11.4556 6.97823 11.4507 6.98647 11.4445C7.00294 11.4322 7.02566 11.4151 7.05394 11.3933C7.11046 11.3498 7.18944 11.2876 7.28541 11.2087C7.47683 11.0512 7.73864 10.8245 8.02596 10.5432C8.58782 9.99296 9.30335 9.17967 9.748 8.22225C10.2004 7.24818 10.4161 6.01255 9.75039 4.78882C9.11172 3.61474 7.77934 2.68007 5.70196 1.97065L5.37879 2.91699Z" fill="white" mask="url(#path-1-outside-1_3805_25344)"/>
</g>
<defs>
<clipPath id="clip0_3805_25344">
<rect width="23" height="23" fill="white"/>
</clipPath>
</defs>
</svg>
