<svg width="16" height="16" viewBox="0 0 16 16" fill="none" xmlns="http://www.w3.org/2000/svg">
<g clip-path="url(#clip0_3695_15919)">
<path d="M11.0293 1.25C13.3516 1.25011 15.2263 3.17729 15.25 5.5127C15.2689 7.41066 14.5909 9.14148 13.249 10.7773H13.248C12.6124 11.5518 11.4947 12.7432 8.98438 14.4473L8.9834 14.4463C8.69354 14.6435 8.35157 14.7497 8.00098 14.75H7.99902C7.64789 14.7495 7.30466 14.6433 7.01465 14.4453V14.4443C4.50551 12.7408 3.38739 11.5506 2.75195 10.7764C1.40954 9.1402 0.731215 7.41001 0.75 5.5127V5.51172C0.773875 3.17668 2.64942 1.25 4.97168 1.25C6.32704 1.25003 7.33198 1.8669 8 2.48828C8.66822 1.86638 9.67375 1.25 11.0293 1.25Z" stroke="#010101" stroke-width="1.5"/>
</g>
<defs>
<clipPath id="clip0_3695_15919">
<rect width="16" height="16" fill="white"/>
</clipPath>
</defs>
</svg>
